<svg width="30" height="30" viewBox="0 0 30 30" fill="none" xmlns="http://www.w3.org/2000/svg">
<path d="M4.96484 8.43848L3.99109 4.68848H1.21484" stroke="white" stroke-width="1.91643" stroke-linecap="round" stroke-linejoin="round"/>
<path d="M8.10156 25.3252C9.1371 25.3252 9.97656 24.4857 9.97656 23.4502C9.97656 22.4147 9.1371 21.5752 8.10156 21.5752C7.06603 21.5752 6.22656 22.4147 6.22656 23.4502C6.22656 24.4857 7.06603 25.3252 8.10156 25.3252Z" stroke="white" stroke-width="1.91643" stroke-linecap="round" stroke-linejoin="round"/>
<path d="M28.7923 8.43848L27.0886 17.1885H7.05484L4.96484 8.43848" stroke="white" stroke-width="1.91643" stroke-linecap="round" stroke-linejoin="round"/>
<path d="M25.0664 25.3145C26.1019 25.3145 26.9414 24.475 26.9414 23.4395C26.9414 22.4039 26.1019 21.5645 25.0664 21.5645C24.0309 21.5645 23.1914 22.4039 23.1914 23.4395C23.1914 24.475 24.0309 25.3145 25.0664 25.3145Z" stroke="white" stroke-width="1.91643" stroke-linecap="round" stroke-linejoin="round"/>
<path d="M25.0673 21.5635L8.10234 21.576L4.96484 8.43848" stroke="white" stroke-width="1.91643" stroke-linecap="round" stroke-linejoin="round"/>
</svg>
