<svg width="29" height="29" viewBox="0 0 29 29" fill="none" xmlns="http://www.w3.org/2000/svg">
<g clip-path="url(#clip0_1_1827)">
<path d="M5.48633 8.08594L4.57749 4.58594H1.98633" stroke="#9F9F9F" stroke-width="2.15383" stroke-linecap="round" stroke-linejoin="round"/>
<path d="M8.41406 23.8477C9.38056 23.8477 10.1641 23.0642 10.1641 22.0977C10.1641 21.1312 9.38056 20.3477 8.41406 20.3477C7.44756 20.3477 6.66406 21.1312 6.66406 22.0977C6.66406 23.0642 7.44756 23.8477 8.41406 23.8477Z" stroke="#9F9F9F" stroke-width="2.15383" stroke-linecap="round" stroke-linejoin="round"/>
<path d="M27.7234 8.08594L26.1332 16.2526H7.43504L5.48438 8.08594" stroke="#9F9F9F" stroke-width="2.15383" stroke-linecap="round" stroke-linejoin="round"/>
<path d="M24.248 23.8369C25.2145 23.8369 25.998 23.0534 25.998 22.0869C25.998 21.1204 25.2145 20.3369 24.248 20.3369C23.2815 20.3369 22.498 21.1204 22.498 22.0869C22.498 23.0534 23.2815 23.8369 24.248 23.8369Z" stroke="#9F9F9F" stroke-width="2.15383" stroke-linecap="round" stroke-linejoin="round"/>
<path d="M24.2487 20.3359L8.41466 20.3476L5.48633 8.08594" stroke="#9F9F9F" stroke-width="2.15383" stroke-linecap="round" stroke-linejoin="round"/>
</g>
<defs>
<clipPath id="clip0_1_1827">
<rect width="28" height="28" fill="white" transform="translate(0.855469 0.210938)"/>
</clipPath>
</defs>
</svg>
