<svg width="30" height="30" viewBox="0 0 30 30" fill="none" xmlns="http://www.w3.org/2000/svg">
<path d="M14.9978 26.2504C14.8333 26.2514 14.6702 26.2198 14.5179 26.1576C14.3656 26.0954 14.2271 26.0038 14.1103 25.8879L4.39777 16.1629C3.17947 14.9319 2.49609 13.2699 2.49609 11.5379C2.49609 9.80593 3.17947 8.14392 4.39777 6.91289C5.62559 5.68853 7.2888 5.00098 9.02276 5.00098C10.7567 5.00098 12.4199 5.68853 13.6478 6.91289L14.9978 8.26289L16.3478 6.91289C17.5756 5.68853 19.2388 5.00098 20.9728 5.00098C22.7067 5.00098 24.3699 5.68853 25.5978 6.91289C26.8161 8.14392 27.4994 9.80593 27.4994 11.5379C27.4994 13.2699 26.8161 14.9319 25.5978 16.1629L15.8853 25.8879C15.7685 26.0038 15.6299 26.0954 15.4776 26.1576C15.3254 26.2198 15.1623 26.2514 14.9978 26.2504ZM9.02276 7.50039C8.49361 7.49799 7.96924 7.60061 7.48003 7.80231C6.99081 8.004 6.54648 8.30076 6.17277 8.67539C5.41784 9.43429 4.99406 10.4612 4.99406 11.5316C4.99406 12.6021 5.41784 13.629 6.17277 14.3879L14.9978 23.2254L23.8228 14.3879C24.5777 13.629 25.0015 12.6021 25.0015 11.5316C25.0015 10.4612 24.5777 9.43429 23.8228 8.67539C23.0523 7.94752 22.0326 7.54201 20.9728 7.54201C19.9129 7.54201 18.8932 7.94752 18.1228 8.67539L15.8853 10.9254C15.7691 11.0426 15.6308 11.1355 15.4785 11.199C15.3262 11.2625 15.1628 11.2951 14.9978 11.2951C14.8328 11.2951 14.6694 11.2625 14.517 11.199C14.3647 11.1355 14.2265 11.0426 14.1103 10.9254L11.8728 8.67539C11.4991 8.30076 11.0547 8.004 10.5655 7.80231C10.0763 7.60061 9.55192 7.49799 9.02276 7.50039V7.50039Z" fill="white"/>
</svg>
