<svg width="26" height="24" viewBox="0 0 26 24" fill="none" xmlns="http://www.w3.org/2000/svg">
<path d="M12.9997 23.736C12.8352 23.737 12.6721 23.7025 12.5198 23.6344C12.3675 23.5663 12.229 23.466 12.1122 23.3392L2.39972 12.6931C1.18142 11.3455 0.498047 9.52611 0.498047 7.63012C0.498047 5.73414 1.18142 3.91472 2.39972 2.5671C3.62755 1.22679 5.29076 0.474121 7.02472 0.474121C8.75868 0.474121 10.4219 1.22679 11.6497 2.5671L12.9997 4.04496L14.3497 2.5671C15.5775 1.22679 17.2408 0.474121 18.9747 0.474121C20.7087 0.474121 22.3719 1.22679 23.5997 2.5671C24.818 3.91472 25.5014 5.73414 25.5014 7.63012C25.5014 9.52611 24.818 11.3455 23.5997 12.6931L13.8872 23.3392C13.7704 23.466 13.6319 23.5663 13.4796 23.6344C13.3273 23.7025 13.1642 23.737 12.9997 23.736ZM7.02472 3.21024C6.49556 3.20762 5.97119 3.31996 5.48198 3.54076C4.99276 3.76155 4.54843 4.08641 4.17472 4.49653C3.41979 5.3273 2.99601 6.45146 2.99601 7.62328C2.99601 8.7951 3.41979 9.91927 4.17472 10.75L12.9997 20.4245L21.8247 10.75C22.5796 9.91927 23.0034 8.7951 23.0034 7.62328C23.0034 6.45146 22.5796 5.3273 21.8247 4.49653C21.0543 3.69973 20.0346 3.25581 18.9747 3.25581C17.9148 3.25581 16.8951 3.69973 16.1247 4.49653L13.8872 6.95962C13.771 7.08787 13.6328 7.18967 13.4804 7.25915C13.3281 7.32862 13.1647 7.36438 12.9997 7.36438C12.8347 7.36438 12.6713 7.32862 12.519 7.25915C12.3667 7.18967 12.2284 7.08787 12.1122 6.95962L9.87472 4.49653C9.501 4.08641 9.05667 3.76155 8.56746 3.54076C8.07824 3.31996 7.55387 3.20762 7.02472 3.21024Z" fill="#9F9F9F"/>
</svg>
