<svg width="40" height="40" viewBox="0 0 40 40" fill="none" xmlns="http://www.w3.org/2000/svg">
<circle cx="20" cy="20" r="19.5811" fill="#1B304A" stroke="#DADADA" stroke-width="0.837726"/>
<path d="M33.6368 18.7218C33.6368 21.4543 32.1529 23.9609 29.6886 25.799C27.2243 27.637 23.8004 28.7864 20.0005 28.7864C16.2006 28.7864 12.7767 27.637 10.3124 25.799C7.84815 23.9609 6.36418 21.4543 6.36418 18.7218C6.36418 15.9892 7.84815 13.4826 10.3124 11.6446C12.7767 9.8065 16.2006 8.65714 20.0005 8.65714C23.8004 8.65714 27.2243 9.8065 29.6886 11.6446C32.1529 13.4826 33.6368 15.9892 33.6368 18.7218Z" fill="white" stroke="#DADADA" stroke-width="0.837726"/>
<path d="M29.1656 25.8462L19.8248 32.6036L21.3877 23.2342L29.1656 25.8462Z" fill="white" stroke="#DADADA" stroke-width="0.837726"/>
<path d="M15.8882 15.5769L15.8882 15.5769C15.6732 15.3697 15.554 15.1051 15.554 14.8033C15.554 14.5005 15.6722 14.234 15.891 14.0271L15.8882 15.5769ZM15.8882 15.5769L15.8939 15.5822M15.8882 15.5769L15.8939 15.5822M15.8939 15.5822C16.1129 15.7856 16.3827 15.8889 16.6808 15.8889C16.979 15.8889 17.249 15.7854 17.4667 15.5796L17.4669 15.5795M15.8939 15.5822L17.4669 15.5795M17.4669 15.5795C17.685 15.373 17.8076 15.1077 17.8076 14.8033C17.8076 14.4991 17.687 14.2328 17.4668 14.027C17.2501 13.8195 16.9801 13.7139 16.6808 13.7139C16.3804 13.7139 16.1097 13.8202 15.8911 14.027L17.4669 15.5795ZM10.0811 22.1111V22.5299H10.5H15.1334H15.5522V22.1111V21.1147V20.6958H15.1334H12.0763V14.44V14.0211H11.6574H10.5H10.0811V14.44V22.1111ZM15.6963 22.1111V22.5299H16.1152H17.2351H17.654V22.1111V16.3577V15.9389H17.2351H16.1152H15.6963V16.3577V22.1111ZM19.6132 22.5299H20.032V22.1111V18.695C20.032 18.4428 20.0794 18.2547 20.1544 18.1142C20.2369 17.9618 20.3408 17.8575 20.4656 17.7871C20.5981 17.7137 20.7572 17.6718 20.9541 17.6718C21.2393 17.6718 21.4169 17.7567 21.5404 17.8917L21.5419 17.8933C21.6679 18.0294 21.7563 18.2419 21.7563 18.5864V22.1111V22.5299H22.1752H23.2951H23.714V22.1111V18.4516C23.714 17.9315 23.6253 17.4643 23.4257 17.0682C23.2285 16.6768 22.943 16.3699 22.5695 16.1638C22.2032 15.9592 21.7877 15.864 21.3362 15.864C20.8451 15.864 20.402 15.9692 20.0331 16.2087L20.0317 16.2096C20.0167 16.2194 20.0018 16.2294 19.9871 16.2396V15.9389H19.5682H18.4932H18.0743V16.3577V22.1111V22.5299H18.4932H19.6132ZM25.3478 22.2228L25.3504 22.2244C25.8358 22.5115 26.4007 22.646 27.0281 22.646C27.4897 22.646 27.916 22.576 28.3001 22.4265L28.3016 22.4259C28.6824 22.2759 29.0098 22.0618 29.2742 21.7793C29.5409 21.4944 29.7268 21.1603 29.8295 20.7827L29.9495 20.3416L29.4996 20.2605L28.4396 20.0695L28.0958 20.0075L27.9731 20.3346C27.9258 20.461 27.8613 20.5576 27.783 20.6329C27.701 20.7116 27.6024 20.7732 27.4816 20.8167C27.357 20.8591 27.211 20.8831 27.0394 20.8831C26.774 20.8831 26.5625 20.8271 26.3908 20.7294C26.2216 20.6306 26.0855 20.4873 25.9825 20.2855C25.9395 20.1992 25.9041 20.1013 25.8778 19.9904H29.4965H29.9154V19.5715V19.1745C29.9154 18.6177 29.8411 18.1207 29.678 17.6952C29.5198 17.2799 29.297 16.9255 29.0019 16.6456C28.7185 16.3768 28.3947 16.1764 28.0326 16.0488C27.683 15.9256 27.3213 15.864 26.9495 15.864C26.3466 15.864 25.8 16.0071 25.325 16.3069L25.324 16.3076C24.858 16.6036 24.4981 17.0145 24.2442 17.528L24.2434 17.5297C23.9911 18.0458 23.8712 18.63 23.8712 19.2718C23.8712 19.9201 23.9907 20.5066 24.2442 21.0194L24.2442 21.0194L24.2455 21.022C24.5017 21.5316 24.8699 21.9355 25.3478 22.2228ZM27.9195 18.3136H25.9276C25.9395 18.2856 25.9524 18.258 25.9662 18.2307C26.0605 18.0479 26.1911 17.903 26.3627 17.7905L26.3636 17.7899C26.5219 17.6855 26.7142 17.6269 26.957 17.6269C27.1808 17.6269 27.3545 17.6772 27.4938 17.7631L27.4957 17.7642C27.6465 17.8561 27.7626 17.9799 27.8479 18.1434L27.8488 18.1451C27.8764 18.1975 27.9001 18.2535 27.9195 18.3136Z" fill="black" stroke="#DADADA" stroke-width="0.837726"/>
</svg>
