<svg width="66" height="27" viewBox="0 0 66 27" fill="none" xmlns="http://www.w3.org/2000/svg">
<path d="M4.72857 16.6443H10.2359V19.8896H0.524342V2.63017H4.72857V16.6443ZM18.4861 20.0863C17.142 20.0863 15.9291 19.7995 14.8473 19.2258C13.7819 18.6521 12.9378 17.8326 12.3149 16.7672C11.7085 15.7018 11.4053 14.4561 11.4053 13.0301C11.4053 11.6205 11.7167 10.383 12.3395 9.3176C12.9624 8.23581 13.8147 7.40808 14.8965 6.8344C15.9783 6.26072 17.1912 5.97388 18.5352 5.97388C19.8793 5.97388 21.0922 6.26072 22.174 6.8344C23.2558 7.40808 24.1081 8.23581 24.7309 9.3176C25.3538 10.383 25.6652 11.6205 25.6652 13.0301C25.6652 14.4397 25.3456 15.6854 24.7064 16.7672C24.0835 17.8326 23.223 18.6521 22.1248 19.2258C21.043 19.7995 19.8301 20.0863 18.4861 20.0863ZM18.4861 16.4476C19.2892 16.4476 19.9694 16.1526 20.5267 15.5625C21.1004 14.9724 21.3872 14.1283 21.3872 13.0301C21.3872 11.9319 21.1086 11.0878 20.5513 10.4977C20.0104 9.90767 19.3384 9.61264 18.5352 9.61264C17.7157 9.61264 17.0355 9.90767 16.4946 10.4977C15.9537 11.0714 15.6832 11.9155 15.6832 13.0301C15.6832 14.1283 15.9455 14.9724 16.47 15.5625C17.0109 16.1526 17.6829 16.4476 18.4861 16.4476ZM33.1079 5.97388C34.075 5.97388 34.9191 6.17057 35.6403 6.56395C36.3779 6.95733 36.9433 7.47364 37.3367 8.11288V6.17057H41.541V19.8651C41.541 21.1272 41.2869 22.2663 40.7788 23.2825C40.2871 24.3152 39.5249 25.1347 38.4923 25.7412C37.476 26.3476 36.2058 26.6508 34.6814 26.6508C32.649 26.6508 31.0017 26.1673 29.7396 25.2003C28.4775 24.2496 27.7563 22.9547 27.576 21.3156H31.7311C31.8622 21.8401 32.1736 22.2499 32.6654 22.545C33.1571 22.8564 33.7635 23.0121 34.4847 23.0121C35.3534 23.0121 36.0419 22.758 36.55 22.2499C37.0745 21.7582 37.3367 20.9632 37.3367 19.8651V17.9228C36.927 18.562 36.3615 19.0865 35.6403 19.4963C34.9191 19.8896 34.075 20.0863 33.1079 20.0863C31.9769 20.0863 30.9525 19.7995 30.0346 19.2258C29.1168 18.6358 28.3874 17.808 27.8465 16.7426C27.322 15.6608 27.0597 14.4151 27.0597 13.0055C27.0597 11.5959 27.322 10.3584 27.8465 9.29302C28.3874 8.22762 29.1168 7.40808 30.0346 6.8344C30.9525 6.26072 31.9769 5.97388 33.1079 5.97388ZM37.3367 13.0301C37.3367 11.9811 37.0417 11.1534 36.4516 10.5469C35.878 9.94045 35.1731 9.63722 34.3372 9.63722C33.5013 9.63722 32.7883 9.94045 32.1982 10.5469C31.6245 11.137 31.3377 11.9565 31.3377 13.0055C31.3377 14.0545 31.6245 14.8905 32.1982 15.5133C32.7883 16.1198 33.5013 16.423 34.3372 16.423C35.1731 16.423 35.878 16.1198 36.4516 15.5133C37.0417 14.9069 37.3367 14.0791 37.3367 13.0301ZM46.6969 4.74458C45.9594 4.74458 45.3529 4.5315 44.8776 4.10534C44.4186 3.66279 44.1892 3.12189 44.1892 2.48265C44.1892 1.82702 44.4186 1.28613 44.8776 0.859965C45.3529 0.417414 45.9594 0.196138 46.6969 0.196138C47.4181 0.196138 48.0082 0.417414 48.4672 0.859965C48.9425 1.28613 49.1801 1.82702 49.1801 2.48265C49.1801 3.12189 48.9425 3.66279 48.4672 4.10534C48.0082 4.5315 47.4181 4.74458 46.6969 4.74458ZM48.7868 6.17057V19.8896H44.5825V6.17057H48.7868ZM60.1928 6.02306C61.7991 6.02306 63.0776 6.54756 64.0283 7.59657C64.9953 8.62919 65.4788 10.0552 65.4788 11.8746V19.8896H61.2992V12.44C61.2992 11.5222 61.0615 10.8092 60.5862 10.301C60.1109 9.79293 59.4716 9.53888 58.6685 9.53888C57.8653 9.53888 57.2261 9.79293 56.7508 10.301C56.2754 10.8092 56.0378 11.5222 56.0378 12.44V19.8896H51.8335V6.17057H56.0378V7.98995C56.4639 7.38349 57.0376 6.90816 57.7588 6.56395C58.48 6.20336 59.2913 6.02306 60.1928 6.02306Z" fill="#A4C8E1"/>
</svg>
