<svg width="103" height="22" viewBox="0 0 103 22" fill="none" xmlns="http://www.w3.org/2000/svg">
<path d="M4.8081 0L0 0L0 22L13.9091 22V17.875L4.8081 17.875L4.8081 0Z" fill="white"/>
<path d="M56.9658 0.108078C59.5807 -0.247005 62.4291 0.333138 64.2546 0.973272L64.4859 1.05439L63.7996 5.16391L63.4531 5.00539C60.683 3.73829 58.8032 3.54333 57.5923 3.77503C56.387 4.00568 55.8413 4.65612 55.685 5.12393C55.4852 5.72219 55.513 6.19836 55.6843 6.60158C55.8592 7.01291 56.1973 7.38088 56.6764 7.7304C57.4252 8.27661 58.4448 8.72996 59.5538 9.22305C59.8854 9.37049 60.225 9.52148 60.5678 9.67958C62.0275 10.3529 63.5245 11.1491 64.4998 12.3382C65.4945 13.5509 65.9241 15.1426 65.3139 17.335C64.5386 20.1205 61.9357 21.4195 59.1337 21.8384C56.3247 22.2582 53.21 21.816 51.2169 21.0203L51.0167 20.9404L51.3557 16.8799L51.697 16.9772C51.8993 17.0349 52.1322 17.1056 52.3894 17.1836C53.4584 17.508 54.9462 17.9594 56.391 18.1324C57.285 18.2395 58.1352 18.2356 58.8394 18.0408C59.535 17.8485 60.0774 17.4741 60.3972 16.8358C60.6894 16.2527 60.7297 15.7852 60.6195 15.3904C60.5073 14.9886 60.2271 14.6178 59.794 14.2562C59.0511 13.636 57.9459 13.1092 56.7306 12.53C56.5064 12.4231 56.2786 12.3145 56.0485 12.2032C54.5993 11.502 53.0819 10.6996 52.062 9.57367C51.0214 8.42495 50.5063 6.94791 51.0436 4.95621C51.4685 3.38122 52.2868 2.25247 53.3401 1.47504C54.3889 0.700874 55.6554 0.286021 56.9658 0.108078Z" fill="white"/>
<path d="M71.7354 0.108078C74.3503 -0.247005 77.1986 0.333138 79.0241 0.973272L79.2554 1.05439L78.5692 5.16391L78.2226 5.00539C75.4526 3.73829 73.5727 3.54333 72.3619 3.77503C71.1565 4.00568 70.6108 4.65612 70.4546 5.12393C70.2547 5.72219 70.2825 6.19836 70.4539 6.60158C70.6287 7.01291 70.9668 7.38088 71.446 7.7304C72.1947 8.27661 73.2144 8.72996 74.3234 9.22305C74.655 9.37049 74.9946 9.52148 75.3373 9.67958C76.797 10.3529 78.294 11.1491 79.2693 12.3382C80.2641 13.5509 80.6936 15.1426 80.0834 17.335C79.3081 20.1205 76.7053 21.4195 73.9032 21.8384C71.0942 22.2582 67.9795 21.816 65.9864 21.0203L65.7862 20.9404L66.1252 16.8799L66.4665 16.9772C66.6688 17.0349 66.9018 17.1056 67.1589 17.1836C68.228 17.508 69.7157 17.9594 71.1605 18.1324C72.0546 18.2395 72.9047 18.2356 73.6089 18.0408C74.3045 17.8485 74.847 17.4741 75.1668 16.8358C75.4589 16.2527 75.4992 15.7852 75.389 15.3904C75.2769 14.9886 74.9966 14.6178 74.5635 14.2562C73.8206 13.636 72.7155 13.1092 71.5001 12.53C71.276 12.4231 71.0481 12.3145 70.818 12.2032C69.3689 11.502 67.8514 10.6996 66.8315 9.57367C65.7909 8.42495 65.2758 6.94791 65.8131 4.95621C66.238 3.38122 67.0564 2.25247 68.1096 1.47504C69.1585 0.700874 70.4249 0.286021 71.7354 0.108078Z" fill="white"/>
<path d="M93.3721 0.108078C95.987 -0.247005 98.8353 0.333138 100.661 0.973272L100.892 1.05439L100.206 5.16391L99.8593 5.00539C97.0893 3.73829 95.2094 3.54333 93.9986 3.77503C92.7933 4.00568 92.2475 4.65612 92.0913 5.12393C91.8915 5.72219 91.9192 6.19836 92.0906 6.60158C92.2654 7.01291 92.6035 7.38088 93.0827 7.7304C93.8315 8.27661 94.8511 8.72996 95.9601 9.22305C96.2917 9.37049 96.6313 9.52148 96.974 9.67958C98.4337 10.3529 99.9307 11.1491 100.906 12.3382C101.901 13.5509 102.33 15.1426 101.72 17.335C100.945 20.1205 98.342 21.4195 95.5399 21.8384C92.731 22.2582 89.6163 21.816 87.6231 21.0203L87.4229 20.9404L87.7619 16.8799L88.1032 16.9772C88.3055 17.0349 88.5385 17.1056 88.7957 17.1836C89.8647 17.508 91.3524 17.9594 92.7972 18.1324C93.6913 18.2395 94.5414 18.2356 95.2456 18.0408C95.9412 17.8485 96.4837 17.4741 96.8035 16.8358C97.0956 16.2527 97.136 15.7852 97.0257 15.3904C96.9136 14.9886 96.6333 14.6178 96.2003 14.2562C95.4573 13.636 94.3522 13.1092 93.1368 12.53C92.9127 12.4231 92.6848 12.3145 92.4548 12.2032C91.0056 11.502 89.4881 10.6996 88.4682 9.57367C87.4276 8.42495 86.9126 6.94791 87.4498 4.95621C87.8747 3.38122 88.6931 2.25247 89.7463 1.47504C90.7952 0.700874 92.0617 0.286021 93.3721 0.108078Z" fill="white"/>
<path d="M31.2539 0L36.7986 0L44.9801 14.3352V0L49.456 0V22H43.91L36.0282 7.97719V22H31.2539L31.2539 0Z" fill="white"/>
<path d="M19.8947 3.85287V8.59488L28.4817 8.59488V12.4477L19.8947 12.4477L19.8947 18.0789L29.37 18.0789V21.9318L15.4531 21.9318L15.4531 0L29.37 0V3.85287L19.8947 3.85287Z" fill="white"/>
<path d="M85.8592 0L81.3945 0V22H85.8592V0Z" fill="white"/>
</svg>
