<svg width="50" height="50" viewBox="0 0 50 50" fill="none" xmlns="http://www.w3.org/2000/svg">
<path d="M25 0L29.8658 6.8406L37.5 3.34937L38.2936 11.7064L46.6506 12.5L43.1594 20.1342L50 25L43.1594 29.8658L46.6506 37.5L38.2936 38.2936L37.5 46.6506L29.8658 43.1594L25 50L20.1342 43.1594L12.5 46.6506L11.7064 38.2936L3.34937 37.5L6.8406 29.8658L0 25L6.8406 20.1342L3.34937 12.5L11.7064 11.7064L12.5 3.34937L20.1342 6.8406L25 0Z" fill="#FFDF5D"/>
<path d="M18.6213 20.2727V29H16.8315L13.3585 23.9631H13.3031V29H11.1937V20.2727H13.0091L16.4437 25.3011H16.5162V20.2727H18.6213ZM19.9476 29V20.2727H26.0328V21.9858H22.057V23.7756H25.7218V25.4929H22.057V27.2869H26.0328V29H19.9476ZM29.4462 29L26.9064 20.2727H29.2374L30.5542 25.9915H30.6266L32.1309 20.2727H34.0314L35.5357 26.0043H35.6081L36.9292 20.2727H39.2559L36.7203 29H34.6877L33.1152 23.7074H33.0471L31.4746 29H29.4462Z" fill="white"/>
</svg>
