<svg width="111" height="21" viewBox="0 0 111 21" fill="none" xmlns="http://www.w3.org/2000/svg">
<path d="M9.05814 6.15465C9.7205 4.30139 12.3414 4.30139 13.0038 6.15465L13.0307 6.2299C13.3125 7.01835 14.0594 7.5446 14.8967 7.5446H15.2216C17.0898 7.5446 17.8188 9.97098 16.26 11.0006C15.536 11.4788 15.2352 12.398 15.5272 13.2151C16.1545 14.9702 14.1984 16.5466 12.6432 15.5193L12.1981 15.2253C11.4902 14.7578 10.5717 14.7578 9.86382 15.2253L9.4187 15.5193C7.86348 16.5466 5.90745 14.9702 6.53473 13.2151C6.82675 12.398 6.52596 11.4788 5.80197 11.0006C4.24311 9.97098 4.97211 7.5446 6.84031 7.5446H7.16523C8.00252 7.5446 8.74945 7.01835 9.03125 6.2299L9.05814 6.15465Z" fill="#FFD508"/>
<path d="M31.0542 6.15465C31.7166 4.30139 34.3375 4.30139 34.9999 6.15465L35.0268 6.2299C35.3086 7.01835 36.0555 7.5446 36.8928 7.5446H37.2177C39.0859 7.5446 39.8149 9.97098 38.256 11.0006C37.5321 11.4788 37.2313 12.398 37.5233 13.2151C38.1506 14.9702 36.1945 16.5466 34.6393 15.5193L34.1942 15.2253C33.4863 14.7578 32.5678 14.7578 31.8599 15.2253L31.4148 15.5193C29.8596 16.5466 27.9035 14.9702 28.5308 13.2151C28.8228 12.398 28.5221 11.4788 27.7981 11.0006C26.2392 9.97098 26.9682 7.5446 28.8364 7.5446H29.1613C29.9986 7.5446 30.7455 7.01835 31.0273 6.2299L31.0542 6.15465Z" fill="#FFD508"/>
<path d="M53.0581 6.15465C53.7205 4.30139 56.3414 4.30139 57.0038 6.15465L57.0307 6.2299C57.3125 7.01835 58.0594 7.5446 58.8967 7.5446H59.2216C61.0898 7.5446 61.8188 9.97098 60.26 11.0006C59.536 11.4788 59.2352 12.398 59.5272 13.2151C60.1545 14.9702 58.1984 16.5466 56.6432 15.5193L56.1981 15.2253C55.4902 14.7578 54.5717 14.7578 53.8638 15.2253L53.4187 15.5193C51.8635 16.5466 49.9075 14.9702 50.5347 13.2151C50.8267 12.398 50.526 11.4788 49.802 11.0006C48.2431 9.97098 48.9721 7.5446 50.8403 7.5446H51.1652C52.0025 7.5446 52.7495 7.01835 53.0312 6.2299L53.0581 6.15465Z" fill="#FFD508"/>
<path d="M75.0542 6.15465C75.7166 4.30139 78.3375 4.30139 78.9999 6.15465L79.0268 6.2299C79.3086 7.01835 80.0555 7.5446 80.8928 7.5446H81.2177C83.0859 7.5446 83.8149 9.97098 82.256 11.0006C81.5321 11.4788 81.2313 12.398 81.5233 13.2151C82.1506 14.9702 80.1945 16.5466 78.6393 15.5193L78.1942 15.2253C77.4863 14.7578 76.5678 14.7578 75.8599 15.2253L75.4148 15.5193C73.8596 16.5466 71.9035 14.9702 72.5308 13.2151C72.8228 12.398 72.5221 11.4788 71.7981 11.0006C70.2392 9.97098 70.9682 7.5446 72.8364 7.5446H73.1613C73.9986 7.5446 74.7455 7.01835 75.0273 6.2299L75.0542 6.15465Z" fill="#FFD508"/>
<path d="M97.0581 6.15465C97.7205 4.30139 100.341 4.30139 101.004 6.15465L101.031 6.2299C101.312 7.01835 102.059 7.5446 102.897 7.5446H103.222C105.09 7.5446 105.819 9.97098 104.26 11.0006C103.536 11.4788 103.235 12.398 103.527 13.2151C104.154 14.9702 102.198 16.5466 100.643 15.5193L100.198 15.2253C99.4902 14.7578 98.5717 14.7578 97.8638 15.2253L97.4187 15.5193C95.8635 16.5466 93.9075 14.9702 94.5347 13.2151C94.8267 12.398 94.526 11.4788 93.802 11.0006C92.2431 9.97098 92.9721 7.5446 94.8403 7.5446H95.1652C96.0025 7.5446 96.7495 7.01835 97.0312 6.2299L97.0581 6.15465Z" fill="#FFD508"/>
</svg>
