<svg width="40" height="40" viewBox="0 0 40 40" fill="none" xmlns="http://www.w3.org/2000/svg">
<circle cx="20" cy="20" r="19.5811" fill="#1B304A" stroke="#DADADA" stroke-width="0.837726"/>
<path d="M13.5859 10.1339H12.8479L13.2263 10.7675L15.1495 13.9874V16.017V16.4359H15.5684H16.3901H16.809V16.017V13.9874L18.7321 10.7675L19.1106 10.1339H18.3725H17.436H17.1936L17.0729 10.344L15.9792 12.2471L14.8856 10.344L14.7648 10.1339H14.5224H13.5859ZM20.5916 14.5631L20.5916 14.5631L20.5906 14.5659C20.5355 14.7199 20.4567 14.8281 20.3596 14.9062C20.2836 14.9674 20.1751 15.0112 20.0031 15.0112C19.8293 15.0112 19.7184 14.9673 19.6404 14.9055C19.5432 14.8271 19.4637 14.7185 19.4071 14.5645C19.3474 14.3969 19.3147 14.2048 19.3147 13.9839C19.3147 13.765 19.3473 13.5735 19.4073 13.4055C19.4643 13.2489 19.5445 13.1382 19.6425 13.058C19.7205 12.9954 19.8306 12.9513 20.0031 12.9513C20.1738 12.9513 20.2814 12.9953 20.3574 13.0572C20.4553 13.137 20.5347 13.2473 20.5902 13.4036L20.5902 13.4036L20.5916 13.4075C20.6528 13.5749 20.6862 13.7656 20.6862 13.9839C20.6862 14.2044 20.6527 14.396 20.5916 14.5631ZM24.8407 14.3175L24.8408 14.3206C24.8421 14.4943 24.8056 14.5989 24.7631 14.6633L24.7612 14.6662C24.7007 14.7597 24.632 14.8193 24.5547 14.858L24.5529 14.8589C24.4575 14.9072 24.3733 14.9258 24.2964 14.9258C24.1533 14.9258 24.0671 14.8829 23.9993 14.8104C23.9332 14.7397 23.8802 14.6285 23.8802 14.4295V11.9188V11.4999H23.4613H22.6635H22.2447V11.9188V13.2292C22.1988 13.0383 22.1338 12.8565 22.0484 12.6848C21.8573 12.3005 21.5828 11.9924 21.2257 11.7728C20.8643 11.5506 20.4508 11.4466 20.0004 11.4466C19.5501 11.4466 19.1365 11.5506 18.7751 11.7728C18.418 11.9924 18.1436 12.3005 17.9525 12.6848C17.7602 13.0715 17.6712 13.5093 17.6712 13.9866C17.6712 14.4623 17.7603 14.8988 17.9529 15.2839C18.1442 15.6665 18.4186 15.9732 18.7751 16.1924C19.1365 16.4146 19.5501 16.5186 20.0004 16.5186C20.4508 16.5186 20.8643 16.4146 21.2257 16.1924C21.5822 15.9732 21.8567 15.6665 22.048 15.2839C22.1371 15.1056 22.2041 14.9163 22.2503 14.7173C22.2689 15.0261 22.3343 15.3114 22.4591 15.5629L22.4591 15.5629L22.4602 15.5652C22.6083 15.8591 22.82 16.0963 23.098 16.2587L23.098 16.2587L23.1018 16.2608C23.3755 16.4169 23.6817 16.4893 24.0083 16.4893C24.315 16.4893 24.6027 16.4299 24.8568 16.2965V16.4359H25.2756H26.0601H26.4789V16.017V11.9188V11.4999H26.0601H25.2596H24.8408V11.9188L24.8407 14.3175Z" fill="white" stroke="#DADADA" stroke-width="0.837726"/>
<rect x="9.77824" y="19.4189" width="20.438" height="9.87315" fill="white" stroke="#DADADA" stroke-width="0.837726"/>
<path d="M21.5935 22.8054V22.3328V22.8054ZM21.5935 22.8054C21.5268 22.8577 21.4699 22.914 21.4228 22.9745C21.3725 23.0392 21.329 23.0994 21.2923 23.1552C21.2683 23.177 21.2451 23.1996 21.2227 23.2229V22.8518H21.1747V22.7815L21.5935 22.8054ZM25.9111 24.2979H27.2023C27.2023 24.146 27.1718 24.029 27.1226 23.9357L27.1218 23.934C27.1117 23.9147 27.1009 23.8964 27.0895 23.879H27.2271H27.23H27.5538C27.5368 23.831 27.5166 23.7847 27.4931 23.7403C27.4077 23.5766 27.2877 23.4477 27.1329 23.3534C26.9799 23.2591 26.8003 23.212 26.594 23.212C26.3698 23.212 26.1742 23.2671 26.007 23.3774C25.8415 23.4859 25.7135 23.6282 25.6228 23.8043L25.9111 24.2979ZM25.9111 24.2979C25.9199 24.1872 25.9486 24.0876 25.9955 23.9954M11.1593 21.95V22.3688H11.5781H12.8615V26.7045V27.1234H13.2804H14.1022H14.521V26.7045V22.3688H15.5633V22.6063V25.2131C15.5633 25.5958 15.6275 25.9476 15.7777 26.2504L15.7777 26.2504L15.7789 26.2527C15.927 26.5466 16.1386 26.7838 16.4166 26.9462L16.4166 26.9462L16.4204 26.9483C16.6941 27.1044 17.0004 27.1768 17.3269 27.1768C17.6337 27.1768 17.9213 27.1174 18.1754 26.984V27.1234H18.5943H19.3787H19.7976V26.7045V22.6063V22.1874H19.3787H18.5783H18.1594V22.6063V25.005H18.1594L18.1594 25.0081C18.1607 25.1818 18.1242 25.2864 18.0817 25.3508L18.0817 25.3508L18.0799 25.3537C18.0194 25.4472 17.9506 25.5068 17.8733 25.5455L17.8733 25.5455L17.8715 25.5464C17.7761 25.5947 17.692 25.6133 17.6151 25.6133C17.472 25.6133 17.3858 25.5704 17.318 25.4979C17.2518 25.4272 17.1988 25.316 17.1988 25.117V22.6063V22.1874H16.78H16.226V21.95V21.2402V20.8214H15.8071H11.5781H11.1593V21.2402V21.95ZM19.958 26.7045V27.1234H20.3769H21.156H21.5749V27.0155C21.5829 27.02 21.5909 27.0243 21.599 27.0287L21.6007 27.0296C21.8383 27.155 22.1154 27.2034 22.4073 27.2034C22.8135 27.2034 23.1889 27.0984 23.52 26.8815L23.5217 26.8804C23.8515 26.662 24.1019 26.3562 24.2781 25.9806L24.2784 25.9797C24.3311 25.8668 24.3753 25.7489 24.4115 25.6263C24.4502 25.7486 24.4974 25.8667 24.5536 25.9803L24.5536 25.9804L24.5548 25.9829C24.7472 26.3654 25.0249 26.6705 25.3856 26.8874L25.3856 26.8874L25.3882 26.889C25.7558 27.1064 26.1803 27.2061 26.6446 27.2061C26.9856 27.2061 27.3045 27.1544 27.5944 27.0415L27.5959 27.0409C27.8819 26.9282 28.1308 26.7662 28.3326 26.5505C28.5361 26.3331 28.6781 26.0777 28.7564 25.7899L28.8764 25.3488L28.6854 25.3144H28.8218V24.8956V24.6127C28.8218 24.2059 28.7676 23.8363 28.6446 23.5156C28.5266 23.2061 28.3588 22.9376 28.1335 22.724C27.9198 22.5212 27.6746 22.3694 27.4002 22.2726C27.1383 22.1803 26.867 22.1341 26.5886 22.1341C26.1395 22.1341 25.7271 22.241 25.3672 22.4682L25.3662 22.4689C25.0143 22.6924 24.7435 23.0023 24.5536 23.3865L24.5527 23.3882C24.4996 23.4968 24.4545 23.6093 24.417 23.7253C24.3791 23.594 24.3319 23.4682 24.275 23.3481C24.0983 22.9716 23.8456 22.6664 23.5119 22.4516C23.1797 22.2377 22.8046 22.1341 22.3993 22.1341C22.1076 22.1341 21.8294 22.1816 21.5935 22.3087V21.2402V20.8214H21.1747H20.3769H19.958V21.2402V26.7045ZM21.6725 24.0583C21.7304 23.9073 21.8066 23.8097 21.8926 23.7448C21.9692 23.688 22.0732 23.6495 22.2286 23.6495C22.3933 23.6495 22.4981 23.6908 22.5717 23.7481L22.5735 23.7494C22.6656 23.8202 22.743 23.922 22.7992 24.073L22.7992 24.073L22.8002 24.0759C22.8611 24.2361 22.8956 24.4272 22.8956 24.6554C22.8956 24.8868 22.8604 25.0813 22.7978 25.245L22.7968 25.2478C22.7379 25.4052 22.6584 25.5123 22.5657 25.5868C22.4917 25.6448 22.3886 25.6854 22.2286 25.6854C22.0773 25.6854 21.9768 25.6473 21.9024 25.5908C21.8141 25.522 21.7353 25.4193 21.6749 25.2626C21.6137 25.1036 21.5775 24.904 21.5775 24.6554C21.5775 24.41 21.6129 24.2137 21.6725 24.0583ZM25.9909 25.3144H27.2359L27.205 25.3968C27.177 25.4715 27.1406 25.5246 27.0989 25.5647C27.0535 25.6083 26.9983 25.6433 26.9278 25.6688C26.8535 25.694 26.7631 25.7094 26.6527 25.7094C26.4815 25.7094 26.3521 25.6735 26.2509 25.6159C26.152 25.5581 26.0709 25.4741 26.0074 25.3499C26.0017 25.3385 25.9962 25.3267 25.9909 25.3144ZM24.8077 23.879C24.8408 23.7721 24.8813 23.6698 24.929 23.5722L26.0417 25.9788C26.216 26.0784 26.4196 26.1282 26.6527 26.1282C26.8038 26.1282 26.9417 26.1069 27.0662 26.0642C27.1907 26.0197 27.2983 25.9539 27.3891 25.8668C27.4798 25.7796 27.5491 25.672 27.5972 25.5439L27.9378 25.6053C27.9414 25.5937 27.9448 25.5819 27.9481 25.57L28.3522 25.68L28.278 26.0922L28.1765 26.0739C28.1328 26.1409 28.0828 26.2044 28.0267 26.2643C27.872 26.4297 27.6772 26.5587 27.4424 26.6512C27.2094 26.7419 26.9435 26.7873 26.6446 26.7873C26.2409 26.7873 25.8931 26.701 25.6014 26.5284C25.3115 26.3541 25.0874 26.1096 24.929 25.7947C24.8558 25.6465 24.7997 25.4864 24.7607 25.3144H24.7263V25.1311C24.7049 24.9888 24.6943 24.8392 24.6943 24.6821C24.6943 24.527 24.7049 24.3787 24.7263 24.2372V23.879H24.8077ZM25.7678 23.879H25.5877H25.7678Z" fill="black" stroke="#DADADA" stroke-width="0.837726"/>
</svg>
